<?xml version="1.0" standalone="no"?>
<!DOCTYPE svg PUBLIC "-//W3C//DTD SVG 20010904//EN"
 "http://www.w3.org/TR/2001/REC-SVG-20010904/DTD/svg10.dtd">
<svg version="1.0" xmlns="http://www.w3.org/2000/svg"
 width="666.000000pt" height="375.000000pt" viewBox="0 0 666.000000 375.000000"
 preserveAspectRatio="xMidYMid meet">

<g transform="translate(0.000000,375.000000) scale(0.100000,-0.100000)"
fill="#000000" stroke="none">
<path d="M2870 3281 c-14 -4 -34 -13 -45 -19 -19 -11 -227 -112 -565 -274
-283 -136 -284 -137 -314 -195 -33 -65 -26 -90 79 -308 35 -71 104 -215 154
-318 50 -104 91 -197 91 -207 0 -9 -24 -66 -54 -126 -30 -60 -72 -147 -94
-194 -22 -47 -74 -156 -116 -242 -82 -169 -91 -210 -60 -271 24 -47 47 -63
164 -119 58 -28 195 -95 305 -148 480 -234 453 -223 515 -218 102 7 99 3 265
353 30 63 57 115 60 115 3 0 37 -66 76 -147 107 -224 127 -261 149 -283 28
-28 63 -40 116 -40 47 0 51 2 449 195 382 186 461 225 481 243 32 28 54 76 54
121 0 41 -10 65 -172 401 -132 273 -168 351 -168 366 0 8 16 45 34 82 19 37
67 135 107 217 39 83 100 209 135 282 47 96 64 143 64 173 0 41 -27 107 -52
127 -18 15 -275 142 -653 322 -93 45 -183 89 -200 99 -18 10 -52 16 -86 17
-103 0 -112 -13 -288 -388 -23 -48 -43 -87 -46 -87 -2 0 -20 33 -39 73 -147
311 -164 343 -199 370 -39 29 -105 42 -147 28z m97 -89 c21 -17 51 -70 113
-207 18 -38 55 -115 82 -169 42 -83 48 -103 39 -122 -10 -23 -12 -23 -240 -26
-252 -3 -255 -4 -305 -72 -20 -26 -21 -43 -26 -472 -5 -485 -2 -464 -63 -464
-50 0 -67 19 -126 143 -70 146 -191 397 -271 562 -176 365 -171 350 -148 400
8 19 40 40 117 77 123 59 426 206 621 301 143 70 172 77 207 49z m781 -48
c274 -133 509 -247 620 -301 157 -75 161 -92 73 -270 -27 -54 -74 -150 -104
-213 -68 -143 -161 -337 -238 -497 -32 -67 -59 -127 -59 -132 0 -5 -13 -23
-29 -40 -22 -23 -38 -31 -63 -31 -69 0 -67 -13 -70 472 -3 423 -4 437 -24 464
-50 68 -53 69 -305 72 -276 4 -269 0 -216 114 119 254 192 395 210 410 12 10
32 18 45 18 13 0 85 -30 160 -66z m30 -577 l22 -20 0 -583 c0 -558 -1 -583
-19 -605 l-19 -24 -507 0 -507 0 -19 24 c-18 22 -19 47 -19 605 l0 583 23 21
c23 22 26 22 503 24 263 2 488 1 499 -1 11 -2 30 -13 43 -24z m-1439 -729 c5
-13 26 -59 47 -103 57 -122 119 -167 210 -152 l34 6 0 -103 c0 -108 12 -157
47 -187 46 -41 64 -44 292 -49 189 -4 225 -7 234 -21 10 -16 10 -16 -144 -335
-65 -136 -101 -184 -136 -184 -17 0 -95 37 -715 338 -190 92 -207 107 -195
170 3 16 59 139 124 273 66 134 132 272 149 306 16 35 32 63 37 63 4 0 11 -10
16 -22z m1906 -80 c27 -57 92 -193 145 -304 113 -233 114 -235 105 -280 -7
-38 -13 -42 -625 -336 -246 -119 -266 -128 -282 -128 -32 0 -69 45 -112 133
-24 51 -74 155 -111 231 -51 105 -65 143 -58 155 9 14 44 17 234 21 201 4 228
7 258 25 65 38 75 63 81 193 l5 116 45 -2 c92 -6 141 36 208 180 25 54 48 98
52 98 4 0 28 -46 55 -102z"/>
<path d="M2345 2831 c-154 -72 -176 -84 -195 -108 -11 -14 -20 -37 -19 -52 0
-37 112 -255 132 -259 26 -5 21 9 -38 130 -30 61 -55 121 -55 133 0 27 20 44
90 75 110 50 175 85 173 95 -4 18 -27 15 -88 -14z"/>
<path d="M4080 2845 c0 -9 41 -34 106 -65 58 -27 109 -50 113 -50 15 0 41 -37
41 -57 0 -12 -25 -71 -55 -131 -59 -119 -64 -135 -39 -130 21 4 134 223 134
259 0 41 -36 78 -109 111 -36 16 -89 41 -117 54 -59 28 -74 30 -74 9z"/>
<path d="M2869 2449 l-29 -31 0 -140 c0 -127 2 -139 18 -136 15 3 18 20 22
141 4 122 7 140 24 153 15 10 54 14 153 14 112 0 133 2 133 15 0 13 -23 15
-146 15 l-146 0 -29 -31z"/>
<path d="M2255 1512 c-6 -4 -36 -60 -68 -126 -63 -127 -68 -164 -29 -199 29
-26 253 -129 268 -123 33 13 14 25 -158 105 -117 55 -118 59 -42 212 37 77 55
122 49 128 -6 6 -15 7 -20 3z"/>
<path d="M4234 1506 c-3 -7 20 -63 51 -124 30 -61 55 -118 55 -126 0 -35 -20
-50 -136 -107 -76 -36 -124 -65 -124 -74 0 -8 5 -15 10 -15 26 0 259 120 273
141 27 37 21 66 -40 191 -56 113 -78 142 -89 114z"/>
</g>
</svg>
